<?xml version="1.0" encoding="UTF-8" standalone="no"?>
<!DOCTYPE svg PUBLIC "-//W3C//DTD SVG 1.1//EN" "http://www.w3.org/Graphics/SVG/1.1/DTD/svg11.dtd">
<svg width="100%" height="100%" viewBox="0 0 223 140" version="1.1" xmlns="http://www.w3.org/2000/svg" xmlns:xlink="http://www.w3.org/1999/xlink" xml:space="preserve" xmlns:serif="http://www.serif.com/" style="fill-rule:evenodd;clip-rule:evenodd;stroke-linejoin:round;stroke-miterlimit:2;">
    <g id="Artboard5" transform="matrix(1,0,0,1,490.11,-3.47245)">
        <rect x="-490.11" y="3.472" width="222.846" height="139.608" style="fill:none;"/>
        <g transform="matrix(1,0,0,1,-1311.82,-425.061)">
            <path d="M846.773,457.623C846.773,457.623 843.449,480.71 843.307,502.415C843.165,524.12 846.815,536.391 846.815,536.391L963.045,546.276L1015.67,541.023L1019.76,458.48C1019.76,458.48 980.474,444.329 964.959,444.665C949.444,445.001 856.527,448.413 852.503,449.954C848.479,451.495 846.773,457.623 846.773,457.623Z" style="fill:rgb(254,233,172);"/>
        </g>
        <g transform="matrix(1,0,0,1,-1311.82,-425.061)">
            <path d="M850.201,458.801C849.958,460.246 849.021,466.081 848.851,471.21C848.136,492.661 850.787,527.604 850.787,539.359C850.787,543.775 847.202,547.359 842.787,547.359C838.371,547.359 834.787,543.775 834.787,539.359C834.787,525.723 831.35,481.346 833.431,461.804C833.914,457.264 834.784,453.769 835.785,451.644C836.862,449.359 838.286,447.889 839.644,446.977C843.309,444.515 848.284,445.492 850.746,449.158C852.788,452.198 852.464,456.141 850.201,458.801Z"/>
            <path d="M1014.31,535.354C1015.77,533.473 1018.06,532.262 1020.62,532.262C1025.04,532.262 1028.62,535.847 1028.62,540.262C1028.62,543.868 1026.11,548.697 1018.99,550.785C1009.12,553.682 984.171,553.119 981.248,553.58C937.622,560.469 888.986,553.04 845.958,546.86C841.588,546.232 838.549,542.174 839.177,537.803C839.805,533.433 843.862,530.394 848.233,531.022C889.748,536.985 936.66,544.422 978.753,537.776C980.73,537.464 992.769,537.634 1003.43,536.921C1007.26,536.664 1012.26,535.751 1014.31,535.354ZM1012.87,538.271C1012.69,538.93 1012.62,539.605 1012.62,540.262C1012.62,539.575 1012.71,538.908 1012.87,538.271Z"/>
            <path d="M847.517,444.307C851.195,443.547 859.648,441.99 867.16,441.99C879.093,441.99 890.521,439.282 902.366,439.282C922.726,439.282 948.707,436.367 972.884,437.348C990.138,438.048 1006.5,440.756 1019.69,447.348C1023.64,449.323 1025.24,454.132 1023.26,458.081C1021.29,462.03 1016.48,463.634 1012.53,461.659C1001.2,455.991 987.069,453.937 972.235,453.335C948.28,452.363 922.539,455.282 902.366,455.282C890.521,455.282 879.093,457.99 867.16,457.99C858.375,457.99 849.497,460.302 848.151,460.516C844.639,461.074 842.716,459.58 842.265,459.278C840.176,457.881 839.221,456.04 838.854,454.141C838.548,452.552 838.61,450.681 839.755,448.666C839.903,448.406 840.897,446.202 844.68,444.804C845.616,444.458 846.575,444.299 847.517,444.307Z"/>
            <path d="M909.668,453.858C909.784,465.284 918.491,514.904 918.491,539.359C918.491,543.775 914.906,547.359 910.491,547.359C906.076,547.359 902.491,543.775 902.491,539.359C902.491,514.671 893.628,464.351 893.667,453.507C893.687,447.746 896.899,445.187 898.087,444.514C901.927,442.335 906.814,443.685 908.992,447.525C910.129,449.529 910.305,451.818 909.668,453.858ZM907.638,457.183C907.153,457.658 906.599,458.08 905.98,458.431C906.531,458.118 907.102,457.718 907.638,457.183Z"/>
            <path d="M837.081,494.096C832.931,492.588 830.787,487.994 832.295,483.844C833.803,479.695 838.397,477.55 842.547,479.058C856.601,484.167 876.82,479.951 890.496,476.532C894.78,475.461 899.127,478.07 900.198,482.353C901.268,486.636 898.66,490.984 894.377,492.054C878.047,496.137 853.863,500.195 837.081,494.096Z"/>
            <path d="M852.777,519.763C852.482,519.947 852.172,520.115 851.847,520.263C847.831,522.096 843.081,520.323 841.248,516.306C839.293,512.022 840.525,508.994 842.129,506.893C843.387,505.246 845.531,503.644 848.871,503.31C851.906,503.006 858.648,504.786 861.973,505.261C876.014,507.267 889.494,507.044 903.64,506.101C908.045,505.807 911.86,509.145 912.154,513.551C912.448,517.956 909.11,521.772 904.704,522.065C889.429,523.084 874.872,523.266 859.71,521.1C858.281,520.896 855.04,520.236 852.777,519.763ZM856.46,511.946C856.385,511.247 856.18,510.488 855.804,509.663C856.143,510.407 856.359,511.175 856.46,511.946Z"/>
        </g>
        <g transform="matrix(1,0,0,1,-1311.82,-425.061)">
            <path d="M1028.45,454.775C1028.44,454.828 1028.43,454.88 1028.43,454.927C1027.02,467.051 1029.53,520.72 1029.53,533.943C1029.53,538.358 1025.94,541.943 1021.53,541.943C1017.11,541.943 1013.53,538.358 1013.53,533.943C1013.53,522.012 1011.57,477.642 1012.14,459.286C1012.29,454.557 1012.73,451.185 1013.19,449.739C1013.93,447.364 1015.21,446.06 1016.11,445.342C1019.55,442.581 1024.59,443.137 1027.35,446.582C1029.27,448.977 1029.59,452.141 1028.45,454.775Z"/>
        </g>
    </g>
</svg>
