<?xml version="1.0" encoding="UTF-8" standalone="no"?>
<!DOCTYPE svg PUBLIC "-//W3C//DTD SVG 1.1//EN" "http://www.w3.org/Graphics/SVG/1.1/DTD/svg11.dtd">
<svg width="100%" height="100%" viewBox="0 0 2357 113" version="1.1" xmlns="http://www.w3.org/2000/svg" xmlns:xlink="http://www.w3.org/1999/xlink" xml:space="preserve" xmlns:serif="http://www.serif.com/" style="fill-rule:evenodd;clip-rule:evenodd;stroke-linejoin:round;stroke-miterlimit:2;">
    <g id="Artboard6" transform="matrix(0.995721,0,0,0.755873,-491.374,2.39509)">
        <rect x="493.486" y="-3.169" width="2366.82" height="148.857" style="fill:none;"/>
        <clipPath id="_clip1">
            <rect x="493.486" y="-3.169" width="2366.82" height="148.857"/>
        </clipPath>
        <g clip-path="url(#_clip1)">
            <g transform="matrix(1.0043,0,0,1.32297,-805.877,-588.189)">
                <path d="M1316.75,458.874L1324.41,545.024L1379.57,542.787C1379.57,542.787 1498.3,559.378 1539.67,550.968C1581.03,542.558 1624.75,539.912 1649.8,541.577C1674.85,543.243 2020.03,539.775 2020.03,539.775L3107.54,538.156L3633.49,536.536C3633.49,536.536 3642.03,522.546 3641.93,505.495C3641.83,488.443 3638.84,459.225 3638.84,459.225L1514.02,445.085C1514.02,445.085 1469.36,449.022 1453.7,448.018C1438.03,447.013 1333.04,450.003 1333.04,450.003L1316.75,458.874Z" style="fill:rgb(254,233,172);"/>
            </g>
            <g transform="matrix(1.0043,0,0,1.32297,-805.877,-588.189)">
                <path d="M1320.69,467.24C1320.93,470.092 1321.4,475.528 1321.65,476.772C1324.79,492.487 1326.11,507.66 1326.11,524.291C1326.11,525.288 1325.64,528.465 1325.28,530.784C1326.77,533.777 1326.26,537.508 1323.77,539.999C1321.09,542.683 1318.55,542.869 1317.04,542.813C1314.15,542.707 1311.67,541.447 1310.03,538.472C1309.45,537.414 1308.78,535.504 1308.88,532.935C1308.96,530.61 1310.04,524.548 1310.11,524.113C1310.11,508.65 1308.89,494.53 1305.96,479.91C1305.42,477.193 1304.28,465.362 1304.76,462.78C1305.9,456.692 1310.63,455.807 1312.95,455.837C1314.42,455.856 1318.08,456.038 1320.41,460.765C1321.46,462.869 1321.49,465.212 1320.69,467.24ZM1306.27,468.23C1306.2,468.111 1306.14,467.988 1306.08,467.864C1306.14,467.991 1306.2,468.113 1306.27,468.23Z"/>
                <path d="M1323.9,536.272C1324.88,536.151 1325.68,536.051 1325.82,536.033C1374.98,529.888 1427.98,531.757 1476.79,539.892C1507.33,544.981 1544.33,539.929 1575.5,536.033C1655.74,526.003 3547.16,531.059 3626.39,531.059C3630.81,531.059 3634.39,534.643 3634.39,539.059C3634.39,543.474 3630.81,547.059 3626.39,547.059C3547.24,547.059 1657.65,541.889 1577.48,551.909C1544.86,555.987 1506.12,561.001 1474.16,555.674C1426.85,547.788 1375.46,545.952 1327.81,551.909C1327.11,551.997 1319.36,552.942 1317.44,552.54C1312.99,551.612 1311.51,548.516 1310.99,546.465C1310.68,545.23 1309.62,539.469 1317.12,536.137C1319.37,535.136 1321.85,535.262 1323.9,536.272Z"/>
                <g>
                    <path d="M1316.12,463.423C1313.09,465.137 1309.16,464.713 1306.56,462.141C1303.74,459.345 1303.62,456.365 1304.55,453.661C1305,452.319 1306.4,449.305 1310.9,448.058C1318.09,446.062 1364.62,444.789 1394.87,442.462C1431.88,439.615 1492.24,436.377 1528.07,439.635C1547.65,441.415 3614.29,449.452 3633.8,449.452C3638.22,449.452 3641.8,453.036 3641.8,457.452C3641.8,461.867 3638.22,465.452 3633.8,465.452C3614.28,465.452 1546.21,457.35 1526.62,455.57C1491.51,452.377 1432.36,455.625 1396.1,458.415C1369.27,460.478 1323.27,463.03 1316.12,463.423ZM1320.19,456.252C1320.25,454.434 1319.63,452.559 1317.82,450.768C1319.35,452.28 1320.14,454.258 1320.19,456.252Z"/>
                </g>
                <path d="M3637.13,449.159C3640.82,449.516 3643.88,452.418 3644.3,456.248C3644.78,460.637 3641.61,464.592 3637.22,465.075C3635.09,465.31 3633.44,464.895 3632.44,464.508C3628.91,463.679 3626.27,460.504 3626.27,456.72C3626.27,452.305 3629.86,448.72 3634.27,448.72C3635.35,448.72 3636.34,448.922 3637.13,449.159ZM3637.94,449.438C3638.59,449.689 3638.97,449.909 3638.97,449.909C3638.97,449.909 3638.59,449.655 3637.94,449.438Z"/>
                <path d="M3630.45,528.24C3630.53,527.426 3630.88,523.353 3630.91,520.1C3631.02,507.459 3629.9,488.442 3629.9,484.661C3629.9,477.145 3628.28,464.502 3631.07,457.152C3632.63,453.023 3637.25,450.939 3641.38,452.502C3645.51,454.066 3647.59,458.687 3646.03,462.817C3645.1,465.276 3645.17,468.641 3645.28,472.003C3645.43,476.602 3645.9,481.22 3645.9,484.661C3645.9,489.032 3647.36,513.54 3646.77,525.539C3646.54,530.094 3645.76,533.401 3645.05,534.807C3644.13,536.641 3642.79,539.532 3642.79,541.578C3642.79,545.993 3639.21,549.578 3634.79,549.578C3630.38,549.578 3626.79,545.993 3626.79,541.578C3626.79,537.641 3628.67,531.986 3630.45,528.24Z"/>
                <path d="M3631.95,532.822C3635.99,531.031 3640.72,532.853 3642.51,536.889C3644.3,540.924 3642.48,545.655 3638.44,547.446C3636.68,548.229 3635.02,549.073 3633.18,549.685C3628.99,551.081 3624.46,548.814 3623.06,544.625C3621.67,540.436 3623.93,535.902 3628.12,534.506C3629.47,534.058 3630.66,533.395 3631.95,532.822Z"/>
                <path d="M2225.08,485.825C2224.69,494.447 2227.92,513.462 2227.92,516.479C2227.92,520.894 2224.34,524.479 2219.92,524.479C2215.51,524.479 2211.92,520.894 2211.92,516.479C2211.92,513.037 2208.29,490.024 2209.37,482.024C2210.02,477.155 2212.58,474.572 2214.43,473.542C2216.64,472.312 2219.19,471.915 2222.13,473.123C2226.22,474.8 2228.17,479.478 2226.49,483.563C2226.14,484.414 2225.66,485.172 2225.08,485.825ZM2217.17,488.289C2216.79,488.195 2216.42,488.074 2216.05,487.923C2216.43,488.079 2216.8,488.2 2217.17,488.289Z"/>
                <path d="M2202.37,486.127C2200.93,486.766 2199.28,486.987 2197.62,486.664C2193.28,485.825 2190.45,481.624 2191.28,477.289C2191.48,476.257 2192.64,472.041 2198.15,470.651C2204.02,469.172 2232.95,466.383 2241.89,467.874C2246.25,468.6 2249.19,472.725 2248.47,477.08C2247.74,481.435 2243.62,484.382 2239.26,483.656C2232.11,482.465 2205.56,485.728 2202.37,486.127ZM2206.51,481.912C2206.74,481.377 2206.89,480.846 2206.99,480.331C2206.89,480.884 2206.72,481.413 2206.51,481.912Z"/>
                <path d="M2249.66,494.539C2249.57,490.125 2253.08,486.467 2257.49,486.375C2261.91,486.283 2265.56,489.793 2265.66,494.207C2265.8,501.065 2265.86,509.036 2268.97,515.262C2270.95,519.211 2269.34,524.02 2265.39,525.995C2261.45,527.969 2256.64,526.366 2254.66,522.417C2250.53,514.144 2249.85,503.652 2249.66,494.539Z"/>
                <path d="M2254.74,485.893C2254.73,485.885 2254.71,485.878 2254.7,485.871C2250.75,483.896 2249.15,479.087 2251.12,475.137C2253.1,471.188 2257.91,469.585 2261.86,471.56C2264.95,473.108 2264.2,472.746 2266.15,474.669C2269.29,477.772 2269.32,482.842 2266.22,485.983C2263.11,489.124 2258.04,489.155 2254.9,486.052C2254.85,485.999 2254.8,485.946 2254.74,485.893Z"/>
                <path d="M2282.35,491.356C2283.16,489.566 2284.3,487.929 2285.8,486.496C2289.28,483.182 2293.45,482.108 2297.88,482.794C2302.26,483.469 2307.15,486.301 2311.14,490.35C2315.45,494.722 2318.63,500.379 2319.51,504.842C2320.17,508.21 2319.72,511.203 2318.54,513.566C2316.56,517.515 2311.75,519.118 2307.8,517.144C2304.29,515.385 2302.63,511.379 2303.71,507.734C2303.25,506.805 2301.49,503.348 2299.74,501.582C2298.96,500.787 2297.66,499.927 2296.7,499.336C2296.66,500.003 2296.69,500.687 2296.75,501.37C2296.93,503.762 2297.36,506.141 2297.52,508.144C2297.67,509.946 2297.98,514.011 2297.96,516.002C2297.94,517.626 2297.66,518.806 2297.48,519.363C2296.11,523.509 2293.04,524.532 2291.1,524.848C2289.84,525.054 2284.23,525.817 2281.96,519.009C2279.67,512.124 2278.22,504.901 2278.65,497.633C2278.81,494.97 2280.26,492.688 2282.35,491.356Z"/>
                <path d="M2327.55,494.867C2327.03,495.031 2325.06,495.657 2323.23,496.452C2323.4,497.69 2323.29,498.987 2322.84,500.245C2321.36,504.405 2316.78,506.58 2312.62,505.1C2308.36,503.582 2306.51,500.986 2305.65,498.708C2304.59,495.895 2304.74,492.625 2306.87,489.351C2308.93,486.174 2314.39,482.301 2319.9,480.345C2324.13,478.844 2328.31,478.537 2331.03,479.215C2339.04,481.22 2343.03,486.494 2344.78,493.089C2346.49,499.536 2345.35,507.745 2345.35,512.939C2345.35,517.354 2341.76,520.939 2337.35,520.939C2332.93,520.939 2329.35,517.354 2329.35,512.939C2329.35,509.303 2330.22,503.906 2329.66,499.073C2329.46,497.363 2329.26,495.535 2327.55,494.867Z"/>
                <path d="M2367.95,509.249C2369.64,510.716 2370.72,512.883 2370.72,515.299C2370.72,519.714 2367.13,523.299 2362.72,523.299C2359.53,523.299 2355.61,521.575 2353.38,516.421C2350.74,510.33 2350.06,494.83 2350.35,491.927C2350.8,487.534 2354.73,484.33 2359.12,484.775C2363.51,485.221 2366.72,489.149 2366.27,493.542C2366.1,495.217 2367.53,506.15 2367.95,509.249Z"/>
                <path d="M2367.3,495.994C2365.85,498.828 2362.78,500.637 2359.41,500.314C2355.02,499.89 2351.8,495.979 2352.22,491.584C2352.68,486.772 2357.29,481.534 2364.89,480.038C2372.34,478.57 2381.96,480.671 2386.96,487.055C2390.35,491.389 2392.3,497.868 2389.19,507.208C2387.79,511.396 2383.26,513.664 2379.07,512.267C2374.88,510.871 2372.61,506.337 2374.01,502.148C2374.76,499.915 2375.12,498.274 2374.47,497.083C2373.93,496.106 2372.73,495.892 2371.65,495.702C2370.35,495.475 2368.3,495.804 2367.3,495.994Z"/>
                <path d="M2391.63,496.882C2391.16,500.163 2388.67,502.942 2385.24,503.613C2380.9,504.46 2376.7,501.629 2375.85,497.296C2374.52,490.483 2377.83,485.493 2383.61,482.718C2389.43,479.924 2398.22,480.363 2402.76,483.025C2408.21,486.222 2410.71,491.032 2411.63,496.516C2412.24,500.135 2412.02,504.105 2412.02,507.628C2412.02,512.043 2408.44,515.628 2404.02,515.628C2399.61,515.628 2396.02,512.043 2396.02,507.628C2396.02,505.348 2396.19,502.835 2396,500.422C2395.89,499.07 2395.97,497.592 2394.66,496.827C2394.06,496.473 2392.63,496.675 2391.63,496.882Z"/>
                <path d="M2416.15,496.018C2414.9,491.784 2417.32,487.331 2421.55,486.081C2425.79,484.83 2430.24,487.253 2431.49,491.488C2433.25,497.451 2436.11,503.64 2438.16,509.819C2439.56,514.008 2437.29,518.542 2433.11,519.938C2428.92,521.334 2424.38,519.067 2422.99,514.878C2420.87,508.524 2417.96,502.151 2416.15,496.018Z"/>
                <path d="M2422.89,463.013C2423.37,462.963 2423.93,462.913 2424.49,462.889C2428.9,462.694 2432.64,466.117 2432.83,470.528C2433.03,474.939 2429.6,478.678 2425.19,478.873C2420.2,479.093 2420.53,479.686 2416.38,477.61C2412.43,475.635 2410.82,470.826 2412.8,466.877C2414.67,463.138 2419.08,461.502 2422.89,463.013Z"/>
                <path d="M2463.04,504.699C2466.61,507.3 2467.39,512.308 2464.79,515.876C2462.19,519.444 2457.18,520.23 2453.61,517.629C2451.72,516.249 2452.11,516.661 2450.5,515.057C2447.38,511.935 2447.38,506.865 2450.5,503.743C2453.62,500.621 2458.69,500.621 2461.81,503.743C2462.43,504.36 2462.31,504.168 2463.04,504.699Z"/>
                <path d="M2505.07,491.986C2504.63,492.741 2504.15,493.665 2503.92,494.432C2503.22,496.87 2502.83,499.846 2504.64,501.767C2505.49,502.66 2506.8,503.154 2508.52,503.421C2511.54,503.89 2515.41,503.54 2520.32,502.313C2524.6,501.242 2528.95,503.851 2530.02,508.134C2531.09,512.418 2528.48,516.765 2524.2,517.836C2508.84,521.675 2499.6,518.62 2494.37,514.056C2485.48,506.299 2486.24,492.033 2491.35,483.488C2494.18,478.76 2498.24,475.913 2501.98,475.192C2505.61,474.495 2509.37,475.248 2512.81,478.49C2516.02,481.519 2516.17,486.586 2513.14,489.798C2511.01,492.061 2507.86,492.803 2505.07,491.986Z"/>
                <path d="M2550.71,478.163C2561.91,477.878 2568.51,481.278 2572.14,485.288C2577.89,491.65 2577.85,501 2573.87,508.857C2569.99,516.545 2562.5,521.93 2556.22,522.118C2551.22,522.268 2546.22,519.892 2542.13,515.52C2537.56,510.627 2534.14,503.145 2533.16,496.608C2532.08,489.384 2534.18,483.277 2538.07,480.092C2540.26,478.298 2543.1,477.115 2546.77,477.12C2548.21,477.121 2549.55,477.5 2550.71,478.163ZM2549.14,494.254C2549.25,495.276 2549.43,496.403 2549.72,497.264C2550.57,499.865 2551.93,502.48 2553.65,504.406C2554.3,505.135 2554.8,506.024 2555.58,506.117C2555.77,506.007 2556.41,505.645 2556.75,505.355C2557.88,504.404 2558.86,503.083 2559.59,501.637C2560.14,500.552 2560.55,499.391 2560.68,498.236C2560.78,497.446 2560.82,496.624 2560.28,496.022C2559.65,495.333 2558.63,494.954 2557.32,494.638C2555.16,494.12 2552.46,493.992 2549.14,494.254Z"/>
                <path d="M2582.33,480.619C2584.28,476.654 2589.07,475.014 2593.04,476.958C2597,478.902 2598.64,483.698 2596.7,487.663C2595.9,489.282 2596.76,491.487 2597.41,493.702C2598.52,497.5 2600.3,501.235 2601.59,503.799C2603.56,507.748 2601.96,512.557 2598.01,514.532C2594.06,516.506 2589.25,514.903 2587.28,510.954C2585.3,506.999 2582.48,500.836 2581.25,495.014C2580.12,489.671 2580.4,484.548 2582.33,480.619Z"/>
                <path d="M2600.97,490.496C2599.8,494.124 2596.16,496.504 2592.26,495.964C2589.09,495.526 2586.33,493.837 2585.48,489.574C2585.34,488.893 2584.99,486.807 2586.26,484.065C2587.07,482.314 2589.58,478.252 2593.3,475.164C2596.24,472.721 2599.86,470.93 2603.82,470.599C2609.65,470.111 2617.34,472.405 2624.3,484.502C2626.29,487.971 2628.53,492.491 2629.35,496.977C2630.1,501.1 2629.75,505.207 2627.89,508.931C2625.92,512.88 2621.11,514.483 2617.16,512.508C2613.21,510.534 2611.61,505.724 2613.58,501.775C2614.04,500.864 2613.65,499.834 2613.37,498.832C2612.7,496.51 2611.47,494.286 2610.43,492.479C2609.13,490.224 2607.9,488.569 2606.65,487.459C2606.07,486.945 2605.65,486.501 2605.15,486.544C2604.18,486.625 2603.49,487.449 2602.85,488.089C2602.07,488.86 2601.31,489.966 2600.97,490.496ZM2600.95,485.522C2599.91,481.97 2597.35,480.516 2594.45,480.115C2597.57,480.546 2600.01,482.724 2600.95,485.522Z"/>
                <path d="M2641.3,484.891C2640.55,484.969 2638.81,485.176 2637.67,485.521C2635.43,486.198 2633.11,487.26 2631.2,488.507C2630.87,488.718 2630.51,489.004 2630.16,489.294C2630.92,491.922 2630.31,494.873 2628.3,497.005C2625.26,500.218 2620.2,500.366 2616.99,497.337C2614.4,494.896 2613.35,492.152 2613.2,489.395C2613.04,486.25 2614.25,482.706 2617.19,479.481C2621.62,474.621 2631,470.022 2638.22,469.058C2642.88,468.436 2646.83,469.328 2649.39,471.002C2655.49,474.982 2658.73,481.727 2659.87,489.639C2661.11,498.248 2659.76,508.35 2659.76,514.796C2659.76,519.211 2656.18,522.796 2651.76,522.796C2647.35,522.796 2643.76,519.211 2643.76,514.796C2643.76,509.775 2644.72,502.381 2644.36,495.398C2644.14,491.305 2643.93,487.168 2641.3,484.891Z"/>
            </g>
        </g>
    </g>
</svg>
