<?xml version="1.0" encoding="UTF-8" standalone="no"?>
<!DOCTYPE svg PUBLIC "-//W3C//DTD SVG 1.1//EN" "http://www.w3.org/Graphics/SVG/1.1/DTD/svg11.dtd">
<svg width="100%" height="100%" viewBox="0 0 121 119" version="1.1" xmlns="http://www.w3.org/2000/svg" xmlns:xlink="http://www.w3.org/1999/xlink" xml:space="preserve" xmlns:serif="http://www.serif.com/" style="fill-rule:evenodd;clip-rule:evenodd;stroke-linejoin:round;stroke-miterlimit:2;">
    <g id="Artboard10" transform="matrix(0.90792,0,0,0.985357,304.9,-4.38052)">
        <rect x="-335.823" y="4.446" width="132.776" height="120.011" style="fill:none;"/>
        <g transform="matrix(1.10142,0,0,1.01486,-4419.12,-440.594)">
            <path d="M3725.84,491.516L3722.39,538.793L3759.5,542.895L3807.95,541.087L3812.59,494.028L3767.85,483.446L3727.61,481.018L3725.84,491.516Z" style="fill:rgb(254,233,172);"/>
        </g>
        <g transform="matrix(1.10142,0,0,1.01486,-4419.12,-440.594)">
            <path d="M3711.87,535.392C3712.41,532.632 3713.82,525.229 3713.82,523.935C3713.82,520.137 3710.77,494.001 3711.37,483.153C3711.61,478.82 3712.79,475.86 3713.73,474.57C3715.05,472.743 3716.68,471.779 3718.3,471.295C3722.53,470.033 3726.99,472.443 3728.25,476.674C3728.91,478.888 3728.57,481.165 3727.48,483.013C3727.41,484.589 3727.26,488.514 3727.4,491.788C3727.92,504.106 3729.82,520.945 3729.82,523.935C3729.82,526.088 3727.86,537.922 3727.08,540.711C3726.54,542.675 3725.7,543.762 3725.38,544.149C3723.22,546.79 3720.71,547.143 3718.93,547.092C3717.8,547.059 3711.12,546.451 3711.12,538.781C3711.12,537.569 3711.39,536.421 3711.87,535.392ZM3726.95,537.146C3727.06,537.674 3727.12,538.22 3727.12,538.781C3727.12,538.156 3727.05,537.613 3726.95,537.146Z"/>
            <path d="M3731.01,488.545C3729.55,492.713 3724.98,494.911 3720.81,493.452C3716.64,491.993 3714.45,487.425 3715.9,483.258C3718.99,474.433 3728.48,469.741 3742.07,469.684C3755.62,469.628 3773.79,473.608 3788.92,476.168C3797.36,477.593 3804.64,478.788 3808.95,477.712C3813.23,476.641 3817.58,479.249 3818.65,483.533C3819.72,487.816 3817.11,492.163 3812.83,493.234C3807.84,494.482 3799.85,494.065 3790.49,492.629C3778.55,490.796 3763.96,487.515 3751.34,486.209C3745.21,485.574 3739.61,485.366 3735.24,486.3C3733.31,486.712 3731.55,486.992 3731.01,488.545Z"/>
            <path d="M3728.33,548.906C3727.23,550.902 3725.29,552.418 3722.88,552.898C3718.55,553.762 3714.34,550.949 3713.47,546.619C3712.74,542.96 3713.6,540.23 3715.04,538.11C3716.37,536.162 3718.41,534.563 3721.31,533.674C3723.62,532.965 3726.94,532.744 3730.71,532.855C3734.38,532.963 3738.68,533.375 3742.33,532.878C3767.14,529.495 3786.54,534.154 3810.89,534.154C3815.3,534.154 3818.89,537.739 3818.89,542.154C3818.89,546.57 3815.3,550.154 3810.89,550.154C3787.3,550.154 3768.52,545.455 3744.49,548.732C3740.67,549.253 3736.27,549.087 3732.24,548.921C3731.04,548.872 3729.55,548.882 3728.33,548.906Z"/>
            <path d="M3823.34,540.669C3824.88,544.809 3822.76,549.416 3818.62,550.95C3814.48,552.485 3809.87,550.369 3808.34,546.229C3805.26,537.916 3805.19,528.247 3806.09,518.713C3806.84,510.675 3808.29,502.768 3808.29,496.269C3808.29,491.854 3811.87,488.269 3816.29,488.269C3820.7,488.269 3824.29,491.854 3824.29,496.269C3824.29,503.201 3822.82,511.641 3822.01,520.214C3821.35,527.292 3821.06,534.497 3823.34,540.669Z"/>
            <path d="M3782.89,476.829C3785.62,479.363 3786.29,483.556 3784.28,486.859C3781.98,490.629 3777.05,491.822 3773.28,489.523C3770.27,487.684 3768.35,484.89 3767.42,481.409C3766.37,477.472 3767.12,472.089 3767.12,468.604C3767.12,464.188 3770.71,460.604 3775.12,460.604C3779.54,460.604 3783.12,464.188 3783.12,468.604C3783.12,470.585 3782.95,475.352 3782.89,476.829Z"/>
            <path d="M3762.46,462.238C3760.77,465.558 3756.91,467.342 3753.19,466.303C3748.93,465.117 3746.44,460.701 3747.63,456.448C3748.22,454.319 3749.56,452.214 3751.61,450.405C3753.54,448.696 3756.52,447.251 3758.18,446.009C3763.27,442.191 3767.63,440.708 3771.47,440.474C3775.79,440.211 3779.71,441.457 3783.6,443.967C3788.4,447.061 3793.31,452.769 3800.69,458.045C3804.29,460.611 3805.12,465.612 3802.55,469.205C3799.99,472.798 3794.99,473.631 3791.39,471.065C3785.42,466.799 3781.05,462.254 3777.07,458.999C3775.55,457.764 3774.31,456.597 3772.74,456.449C3771.26,456.309 3769.82,457.281 3767.78,458.809C3766.6,459.693 3763.4,461.661 3762.46,462.238Z"/>
        </g>
    </g>
</svg>
