<?xml version="1.0" encoding="UTF-8" standalone="no"?>
<!DOCTYPE svg PUBLIC "-//W3C//DTD SVG 1.1//EN" "http://www.w3.org/Graphics/SVG/1.1/DTD/svg11.dtd">
<svg width="100%" height="100%" viewBox="0 0 79 83" version="1.1" xmlns="http://www.w3.org/2000/svg" xmlns:xlink="http://www.w3.org/1999/xlink" xml:space="preserve" xmlns:serif="http://www.serif.com/" style="fill-rule:evenodd;clip-rule:evenodd;stroke-linejoin:round;stroke-miterlimit:2;">
    <g id="Artboard8" transform="matrix(1,0,0,1,-180.134,-19.6075)">
        <rect x="180.134" y="19.608" width="78.754" height="82.503" style="fill:none;"/>
        <g transform="matrix(1,0,0,1,-3705.9,-433.705)">
            <path d="M3930.93,473.962C3930.8,475.495 3930.39,480.444 3930.44,484.43C3930.62,497.895 3932.25,516.291 3932.25,521.911C3932.25,526.326 3928.67,529.911 3924.25,529.911C3919.84,529.911 3916.25,526.326 3916.25,521.911C3916.25,514.688 3913.63,486.614 3914.71,474.384C3915,471.059 3915.65,468.526 3916.35,467.014C3917.38,464.809 3918.81,463.483 3920.14,462.683C3923.93,460.408 3928.85,461.632 3931.12,465.416C3932.76,468.147 3932.58,471.469 3930.93,473.962Z"/>
            <path d="M3908.26,501.969C3906.07,505.495 3901.49,506.782 3897.75,504.822C3893.08,502.366 3892.34,498.876 3892.29,496.732C3892.24,494.228 3893.66,489.437 3900.16,487.435C3910.12,484.369 3948.78,483.546 3952.59,483.546C3957.01,483.546 3960.59,487.131 3960.59,491.546C3960.59,495.961 3957.01,499.546 3952.59,499.546C3949.47,499.546 3920.57,499.864 3908.26,501.969Z"/>
        </g>
    </g>
</svg>
