<?xml version="1.0" encoding="UTF-8" standalone="no"?>
<!DOCTYPE svg PUBLIC "-//W3C//DTD SVG 1.1//EN" "http://www.w3.org/Graphics/SVG/1.1/DTD/svg11.dtd">
<svg width="100%" height="100%" viewBox="0 0 126 109" version="1.1" xmlns="http://www.w3.org/2000/svg" xmlns:xlink="http://www.w3.org/1999/xlink" xml:space="preserve" xmlns:serif="http://www.serif.com/" style="fill-rule:evenodd;clip-rule:evenodd;stroke-linejoin:round;stroke-miterlimit:2;">
    <g id="Artboard9" transform="matrix(0.995009,0,0,1.00661,-153.897,13.6249)">
        <rect x="154.669" y="-13.535" width="125.988" height="107.567" style="fill:none;"/>
        <g transform="matrix(1.00502,0,0,0.99343,-3905.63,-449.254)">
            <path d="M4053.72,450.272L4064.38,524.394L4090.27,518.798L4096.15,535.548L4151.73,527.827L4154.3,460.079L4098.76,456.219C4098.76,456.219 4092.43,445.757 4086.36,446.681C4080.29,447.604 4053.72,450.272 4053.72,450.272Z" style="fill:rgb(254,233,172);"/>
        </g>
        <g transform="matrix(1.00502,0,0,0.99343,-3905.63,-449.254)">
            <path d="M4061.17,459.714C4060.36,467.016 4062.52,489.069 4064.57,502.816C4065.17,506.852 4066.2,511.551 4066.35,512.236C4068.15,515.796 4067.05,520.227 4063.64,522.494C4059.97,524.944 4055,523.949 4052.55,520.276C4051.9,519.301 4050.76,516.462 4049.92,512.177C4047.75,500.994 4045.03,475.857 4045.03,463.353C4045.03,459.075 4045.48,455.898 4046.02,454.349C4046.61,452.623 4047.49,451.466 4048.26,450.699C4051.39,447.583 4056.46,447.595 4059.57,450.724C4061.99,453.157 4062.53,456.765 4061.17,459.714Z"/>
            <path d="M4055.74,525.782C4051.61,524.236 4049.5,519.623 4051.05,515.487C4052.6,511.351 4057.21,509.249 4061.34,510.795C4063.42,511.572 4066.16,511.613 4069.02,511.53C4074.83,511.361 4081.05,510.337 4085.4,509.902C4089.8,509.463 4093.72,512.673 4094.16,517.066C4094.6,521.46 4091.39,525.383 4086.99,525.823C4078.53,526.67 4063.94,528.848 4055.74,525.782Z"/>
            <path d="M4055.33,457.065C4050.91,457.262 4047.18,453.84 4046.98,449.429C4046.78,445.018 4050.2,441.278 4054.62,441.081C4068.85,440.448 4083.99,441.035 4098.34,441.035C4102.76,441.035 4106.34,444.62 4106.34,449.035C4106.34,453.45 4102.76,457.035 4098.34,457.035C4084.22,457.035 4069.33,456.442 4055.33,457.065Z"/>
            <path d="M4094.05,469.736C4094.04,470.547 4094.05,474.342 4094.5,476.964C4095.99,485.691 4099.23,495.772 4099.57,499.615C4099.81,502.418 4099.31,510.441 4099.37,517.84C4099.4,521.068 4099.99,525.684 4100.13,526.709C4102.37,529.834 4102.08,534.21 4099.28,537.015C4096.15,540.137 4091.09,540.137 4087.96,537.015C4086.04,535.092 4084.14,530.589 4083.64,524.611C4082.97,516.473 4083.94,504.522 4083.63,501.021C4083.24,496.671 4078.96,484.102 4078.09,474.968C4077.47,468.382 4078.83,463.029 4081.29,460.111C4084.14,456.735 4089.19,456.304 4092.57,459.15C4095.72,461.809 4096.3,466.392 4094.05,469.736Z"/>
            <path d="M4096.2,454.399C4096.67,454.509 4099.39,455.127 4101.36,455.176C4108.35,455.348 4117.45,453.852 4125.59,452.771C4133.11,451.772 4139.95,451.174 4144.36,451.803C4148.14,452.344 4150.86,453.8 4152.59,455.524C4155.71,458.646 4155.71,463.716 4152.59,466.838C4149.77,469.654 4145.37,469.93 4142.24,467.665C4141.61,467.619 4139.64,467.489 4138.1,467.559C4133.14,467.784 4126.81,468.765 4120.4,469.621C4110.82,470.903 4101.12,471.795 4094.62,470.542C4090.04,469.66 4086.6,467.731 4084.38,465.168C4081.49,461.831 4081.85,456.774 4085.19,453.884C4088.42,451.08 4093.28,451.337 4096.2,454.399Z"/>
            <path d="M4103.81,441.532C4106.02,441.325 4109.32,441.035 4110.49,441.035C4114.41,441.035 4119.6,442.082 4124.62,442.632C4126.42,442.829 4128.2,442.959 4129.82,442.811C4130.52,442.747 4131.18,442.718 4131.69,442.378C4135.37,439.929 4140.34,440.924 4142.79,444.597C4145.24,448.271 4144.24,453.242 4140.57,455.691C4136.81,458.198 4131.71,459.109 4126.12,458.808C4120.74,458.519 4114.79,457.035 4110.49,457.035C4108.53,457.035 4103.62,457.847 4100.84,457.709C4098.7,457.603 4097.02,457.058 4095.94,456.484C4093.21,455.038 4091.89,452.844 4091.44,450.435C4091.12,448.705 4091.15,446.457 4092.81,443.91C4095.21,440.235 4100.12,439.18 4103.81,441.532ZM4107.09,450.851C4106.88,451.471 4106.59,452.075 4106.21,452.649C4106.62,452.027 4106.9,451.426 4107.09,450.851Z"/>
            <path d="M4142.91,459.275C4142.29,454.905 4145.33,450.848 4149.7,450.222C4154.07,449.596 4158.12,452.636 4158.75,457.007C4161.57,476.698 4158.98,501.132 4158.98,521.236C4158.98,525.652 4155.39,529.236 4150.98,529.236C4146.56,529.236 4142.98,525.652 4142.98,521.236C4142.98,501.842 4145.63,478.271 4142.91,459.275Z"/>
            <path d="M4097.86,528.969C4101.19,528.637 4105.88,528.169 4106.23,528.13C4111.19,527.58 4122.02,527.028 4131.32,525.22C4135.82,524.345 4140.02,523.583 4141.95,521.652C4145.07,518.53 4150.14,518.53 4153.26,521.652C4156.38,524.775 4156.38,529.844 4153.26,532.966C4150.45,535.775 4145.53,538.187 4139.48,539.773C4128.81,542.571 4114.16,543.348 4108,544.033C4107.39,544.1 4099.15,545.332 4094.86,545.31C4092.13,545.296 4090.1,544.663 4089.09,544.137C4084.85,541.948 4083.94,538.539 4084.7,534.974C4084.98,533.671 4085.78,531.049 4089.45,528.85C4092.13,527.244 4095.39,527.396 4097.86,528.969Z"/>
        </g>
    </g>
</svg>
